<?xml version="1.0" encoding="utf-8"?>
<!-- Generator:class="shape-white" Adobe Illustrator 24.2.3, SVG Export Plug-In . SVG Version: 6.00 Build 0)  -->
<svg version="1.1" xmlns="http://www.w3.org/2000/svg" xmlns:xlink="http://www.w3.org/1999/xlink" x="0px" y="0px"
	 viewBox="0 0 280 280" enable-background="new 0 0 280 280" xml:space="preserve">
<g id="Sqare">

	<style>
		.text-white {
			fill: #FFFFFF;
		}

		.text-cyan {
			fill: #0E9CD9;
		}

		.shape-white {
			fill: #FFFFFF;
		}

		.shape-cyan {
			fill: #0E9CD9;
		}
	</style>
	<polygon class="shape-white" points="0,280 280,280 280,94.9 0,185.1 	"/>
	<polygon class="shape-cyan" points="0,0 0,185.1 280,94.9 280,0 	"/>
</g>
<g id="Roboto">
	<defs>
		<polygon id="SVGID_1_" points="0,185.1 280,94.9 280,0 0,0 		"/>
	</defs>
	<clipPath id="SVGID_2_">
		<use xlink:href="#SVGID_1_"  overflow="visible"/>
	</clipPath>
	<g clip-path="url(#SVGID_2_)">
		<polygon class="text-white" points="87.9,123.5 82.8,123.5 82.8,144.8 96.8,144.8 96.8,140.9 87.9,140.9 		"/>
		<path class="text-white" d="M105.5,123.5l-7.8,21.3h5.5l1.2-4h7l1.2,4h5.5l-7.9-21.3H105.5z M105.6,136.9l2.3-7.4l2.3,7.4H105.6z"/>
		<polygon class="text-white" points="132.4,144.8 137.5,144.8 137.5,140.8 131.3,142.8 		"/>
		<polygon class="text-white" points="132.4,123.5 132.4,136.8 124.9,123.5 119.7,123.5 119.7,144.8 124.9,144.8 124.9,131.6 
			131.3,142.8 137.5,140.8 137.5,123.5 		"/>
		<polygon class="text-white" points="146,144.8 151.1,144.8 151.1,136.4 146,138.1 		"/>
		<polygon class="text-white" points="157.5,127.5 157.5,123.5 139.7,123.5 139.7,127.5 146,127.5 146,138.1 151.1,136.4 151.1,127.5 		
			"/>
		<path class="text-white" d="M171,130.4c0,0.9-0.2,1.6-0.7,2.2c-0.5,0.5-1.2,0.8-2.2,0.8h-3.3V132l-5.1,1.7v11.2h5.1v-7.5h2.8l3.8,7.5
			h5.5v-0.2l-4.5-8.6c1.3-0.6,2.2-1.4,2.8-2.4c0.6-1,0.9-2.2,0.9-3.7c0-0.6-0.1-1.1-0.2-1.6l-5,1.6C171,130.1,171,130.3,171,130.4z"
			/>
		<path class="text-white" d="M174,125.2c-1.4-1.1-3.4-1.7-5.9-1.7h-8.4v10.1l5.1-1.7v-4.5h3.3c1,0,1.7,0.3,2.2,0.8
			c0.4,0.4,0.6,1,0.7,1.7l5-1.6C175.7,127.1,175.1,126,174,125.2z"/>
		<path class="text-white" d="M177.6,144.8h5.5l1.2-4h7l1.2,4h5.5l-7.8-21.1l-5.7,1.8L177.6,144.8z M190.2,136.9h-4.6l2.3-7.4
			L190.2,136.9z"/>
		<polygon class="text-white" points="185.4,123.5 184.7,125.6 190.4,123.8 190.3,123.5 		"/>
		<polygon class="text-white" points="81.3,151.1 83.4,151.1 83.4,156.8 85.1,156.8 85.1,151.1 87.3,151.1 87.3,149.7 81.3,149.7 		"/>
		<polygon class="text-white" points="95.9,156.8 97.7,156.8 97.7,156.8 96.3,154.1 94.8,154.6 		"/>
		<polygon class="text-white" points="92,156.8 93.7,156.8 93.7,154.9 92,155.5 		"/>
		<path class="text-white" d="M97.2,153.1c0.2-0.3,0.3-0.7,0.3-1.2c0-0.7-0.2-1.2-0.7-1.6s-1.1-0.6-2-0.6H92v5.7l1.7-0.6v-0.6h0.9
			l0.1,0.3l1.6-0.5l-0.1-0.2C96.7,153.7,97,153.4,97.2,153.1z M95.5,152.8c-0.2,0.2-0.4,0.3-0.7,0.3h-1.1v-2h1.1
			c0.3,0,0.6,0.1,0.7,0.3s0.2,0.4,0.2,0.7C95.8,152.3,95.7,152.6,95.5,152.8z"/>
		<path class="text-white" d="M102,156.8h1.8l0.4-1.3h2.3l0.4,1.3h1.8l-2.2-6.1l-2.7,0.9L102,156.8z M105.4,151.7l0.8,2.5h-1.5
			L105.4,151.7z"/>
		<polygon class="text-white" points="104.6,149.7 103.9,151.6 106.6,150.8 106.2,149.7 		"/>
		<polygon class="text-white" points="117.5,154.2 115,149.7 113.3,149.7 113.3,156.8 115,156.8 115,152.4 117.6,156.8 119.3,156.8 
			119.3,149.7 117.5,149.7 		"/>
		<path class="text-white" d="M127,150.9c0.3,0,0.5,0.1,0.7,0.2c0.2,0.2,0.3,0.4,0.3,0.7h1.7c0-0.4-0.1-0.8-0.3-1.2
			c-0.2-0.3-0.5-0.6-0.9-0.8c-0.4-0.2-0.9-0.3-1.4-0.3c-0.5,0-1,0.1-1.4,0.3c-0.4,0.2-0.7,0.4-1,0.7c-0.2,0.3-0.3,0.6-0.3,1
			c0,0.8,0.5,1.4,1.4,1.9c0.3,0.1,0.6,0.3,1.1,0.4s0.8,0.3,0.9,0.4c0.2,0.1,0.3,0.3,0.3,0.6c0,0.2-0.1,0.4-0.2,0.5
			c-0.2,0.1-0.4,0.2-0.7,0.2c-0.4,0-0.8-0.1-1-0.3c-0.2-0.2-0.3-0.5-0.3-0.8h-1.7c0,0.5,0.1,0.9,0.4,1.2c0.2,0.4,0.6,0.6,1.1,0.8
			c0.5,0.2,1,0.3,1.6,0.3c0.8,0,1.5-0.2,1.9-0.5s0.7-0.8,0.7-1.5c0-0.8-0.4-1.4-1.2-1.8c-0.3-0.2-0.7-0.4-1.2-0.5
			c-0.5-0.2-0.8-0.3-1-0.5c-0.2-0.1-0.3-0.3-0.3-0.5c0-0.2,0.1-0.4,0.3-0.5C126.5,151,126.7,150.9,127,150.9z"/>
		<polygon class="text-white" points="136.3,149.7 134.6,149.7 134.6,156.8 139.3,156.8 139.3,155.5 136.3,155.5 		"/>
		<path class="text-white" d="M146.2,149.7l-2.6,7.1h1.8l0.4-1.3h2.3l0.4,1.3h1.8l-2.6-7.1H146.2z M146.2,154.2l0.8-2.5l0.8,2.5H146.2z"
			/>
		<polygon class="text-white" points="154,151.1 156.1,151.1 156.1,156.8 157.8,156.8 157.8,151.1 159.9,151.1 159.9,149.7 154,149.7 		
			"/>
		<rect x="164.8" y="149.7" class="text-white" width="1.7" height="7.1"/>
		<path class="text-white" d="M176.2,150.1c-0.5-0.3-1-0.4-1.6-0.4c-0.6,0-1.2,0.1-1.6,0.4c-0.5,0.3-0.8,0.7-1.1,1.2
			c-0.3,0.5-0.4,1.1-0.4,1.8v0.4c0,0.7,0.2,1.3,0.4,1.8c0.3,0.5,0.6,0.9,1.1,1.2c0.5,0.3,1,0.4,1.6,0.4s1.1-0.1,1.6-0.4
			c0.5-0.3,0.8-0.7,1.1-1.2s0.4-1.1,0.4-1.8v-0.3c0-0.7-0.1-1.3-0.4-1.8C177,150.8,176.7,150.4,176.2,150.1z M175.9,153.5
			c0,0.7-0.1,1.2-0.4,1.6s-0.6,0.6-1,0.6c-0.5,0-0.8-0.2-1-0.6s-0.3-0.9-0.3-1.6l0-0.5c0-1.3,0.5-1.9,1.4-1.9c0.4,0,0.8,0.2,1,0.5
			c0.2,0.4,0.4,0.9,0.4,1.6V153.5z"/>
		<polygon class="text-white" points="186.8,154.2 184.3,149.7 182.6,149.7 182.6,156.8 184.3,156.8 184.3,152.4 186.8,156.8 
			188.5,156.8 188.5,149.7 186.8,149.7 		"/>
		<path class="text-white" d="M196.3,150.9c0.3,0,0.5,0.1,0.7,0.2c0.2,0.2,0.3,0.4,0.3,0.7h1.7c0-0.4-0.1-0.8-0.3-1.2
			c-0.2-0.3-0.5-0.6-0.9-0.8c-0.4-0.2-0.9-0.3-1.4-0.3c-0.5,0-1,0.1-1.4,0.3c-0.4,0.2-0.7,0.4-1,0.7c-0.2,0.3-0.3,0.6-0.3,1
			c0,0.8,0.5,1.4,1.4,1.9c0.3,0.1,0.6,0.3,1.1,0.4s0.8,0.3,0.9,0.4c0.2,0.1,0.3,0.3,0.3,0.6c0,0.2-0.1,0.4-0.2,0.5
			c-0.2,0.1-0.4,0.2-0.7,0.2c-0.4,0-0.8-0.1-1-0.3c-0.2-0.2-0.3-0.5-0.3-0.8h-1.7c0,0.5,0.1,0.9,0.4,1.2c0.2,0.4,0.6,0.6,1.1,0.8
			c0.5,0.2,1,0.3,1.6,0.3c0.8,0,1.5-0.2,1.9-0.5s0.7-0.8,0.7-1.5c0-0.8-0.4-1.4-1.2-1.8c-0.3-0.2-0.7-0.4-1.2-0.5
			c-0.5-0.2-0.8-0.3-1-0.5c-0.2-0.1-0.3-0.3-0.3-0.5c0-0.2,0.1-0.4,0.3-0.5C195.7,151,196,150.9,196.3,150.9z"/>
	</g>
</g>
<g id="Roboto_Slab">
	<defs>
		<polygon id="SVGID_3_" points="280,94.9 0,185.1 0,280 280,280 		"/>
	</defs>
	<clipPath id="SVGID_4_">
		<use xlink:href="#SVGID_3_"  overflow="visible"/>
	</clipPath>
	<g clip-path="url(#SVGID_4_)">
		<polygon class="text-cyan" points="94.9,142.6 87.5,142.6 87.5,125.8 89.8,125.4 89.8,123.5 87.5,123.5 84.6,123.5 82.2,123.5 
			82.2,125.4 84.6,125.8 84.6,142.6 82.2,143 82.2,144.8 97.6,144.8 97.6,140.1 95.1,140.1 		"/>
		<path class="text-cyan" d="M110,123.5h-2.5l-7.5,19.3l-1.6,0.2v1.8h6.1V143l-1.6-0.3l1.5-3.9h8.5l1.4,3.9l-1.6,0.3v1.8h6.1V143
			l-1.6-0.2L110,123.5z M105.4,136.4l3.4-9.2h0.1l3.3,9.2H105.4z"/>
		<polygon class="text-cyan" points="133.7,144.8 136.5,144.8 136.5,141.1 132.2,142.5 		"/>
		<polygon class="text-cyan" points="125.7,144.8 125.7,144.6 125,144.8 		"/>
		<polygon class="text-cyan" points="138.9,125.4 138.9,123.5 136.5,123.5 131.3,123.5 131.3,125.4 133.7,125.8 133.7,139.9 133.6,140 
			123.3,123.5 120.4,123.5 118,123.5 118,125.4 120.4,125.8 120.4,142.6 118,143 118,144.8 125,144.8 125.7,144.6 125.7,143 
			123.3,142.6 123.3,128.4 123.4,128.4 132.2,142.5 136.5,141.1 136.5,125.8 		"/>
		<polygon class="text-cyan" points="147.2,137.7 147.2,142.6 144.8,143 144.8,144.8 152.5,144.8 152.5,143 150.1,142.6 150.1,136.7 		
			"/>
		<polygon class="text-cyan" points="150.1,125.8 154.8,125.8 155.1,128.2 157.5,128.2 157.5,123.5 139.8,123.5 139.8,128.2 
			142.3,128.2 142.5,125.8 147.2,125.8 147.2,137.7 150.1,136.7 		"/>
		<path class="text-cyan" d="M171.1,132.1c-0.7,0.6-1.9,0.9-3.5,0.9h-3.8v-0.7l-2.9,0.9v9.3l-2.4,0.4v1.8h7.7V143l-2.4-0.4v-7.3h4.6
			c1.1,0,2,0.4,2.7,1.1s1,1.6,1,2.8v1.7c0,1.1,0.2,2.1,0.7,2.8s1.3,1.2,2.4,1.2h1.6V143l-0.7-0.1c-0.4-0.1-0.7-0.2-0.8-0.6
			s-0.2-0.8-0.2-1.5v-1.7c0-1.3-0.3-2.3-0.8-3.2c-0.5-0.9-1.3-1.5-2.5-1.9c1.1-0.5,1.9-1.1,2.5-1.9s0.9-1.7,0.9-2.8
			c0-0.3,0-0.5,0-0.8l-2.9,0.9C172.1,130.7,171.8,131.6,171.1,132.1z"/>
		<path class="text-cyan" d="M173.2,125.1c-1.2-1-3-1.5-5.3-1.5h-7h-2.4v1.8l2.4,0.4v7.5l2.9-0.9v-6.6h4.1c1.5,0,2.6,0.3,3.3,1
			s1.1,1.5,1.1,2.7c0,0.1,0,0.1,0,0.2l2.9-0.9C174.9,127.2,174.3,126,173.2,125.1z"/>
		<path class="text-cyan" d="M178.9,142.8l-1.6,0.2v1.8h6.1V143l-1.6-0.3l1.5-3.9h8.5l1.4,3.9l-1.6,0.3v1.8h6.1V143l-1.6-0.2l-7.1-18.6
			l-3.4,1.1L178.9,142.8z M190.9,136.4h-6.8l3.4-9.2h0.1L190.9,136.4z"/>
		<polygon class="text-cyan" points="186.3,123.5 185.7,125.3 189.1,124.2 188.8,123.5 		"/>
		<polygon class="text-cyan" points="81.3,151.3 82.2,151.3 82.2,150.5 83.8,150.5 83.8,156.1 83,156.2 83,156.8 85.6,156.8 
			85.6,156.2 84.8,156.1 84.8,150.5 86.3,150.5 86.4,151.3 87.2,151.3 87.2,149.7 81.3,149.7 		"/>
		<polygon class="text-cyan" points="92.4,156.1 91.6,156.2 91.6,156.8 94.1,156.8 94.1,156.2 93.3,156.1 93.3,155 92.4,155.4 		"/>
		<path class="text-cyan" d="M96.1,155v0.6c0,0.4,0.1,0.7,0.2,0.9c0.2,0.3,0.4,0.4,0.8,0.4h0.5v-0.6l-0.2,0c-0.1,0-0.2-0.1-0.3-0.2
			s-0.1-0.3-0.1-0.5v-0.6c0-0.4-0.1-0.7-0.2-1l-0.9,0.3C96,154.4,96.1,154.7,96.1,155z"/>
		<path class="text-cyan" d="M96,153.3c0.4-0.2,0.6-0.4,0.8-0.6s0.3-0.6,0.3-0.9c0-0.6-0.2-1.1-0.6-1.5c-0.4-0.3-1-0.5-1.8-0.5h-2.3
			h-0.8v0.6l0.8,0.1v4.9l1-0.3v-1.4h1.5c0.4,0,0.7,0.1,0.9,0.4c0.1,0.1,0.1,0.1,0.1,0.2l0.9-0.3c0,0,0,0,0,0
			C96.6,153.6,96.4,153.4,96,153.3z M95.8,152.6c-0.2,0.2-0.6,0.3-1.2,0.3h-1.3v-2.4h1.4c0.5,0,0.9,0.1,1.1,0.3s0.4,0.5,0.4,0.9
			C96.1,152.1,96,152.4,95.8,152.6z"/>
		<polygon class="text-cyan" points="106.5,154 104.2,154 105.3,151.2 104.3,151.5 102.5,156.2 102,156.2 102,156.8 104,156.8 
			104,156.2 103.4,156.1 103.9,154.8 106.8,154.8 107.2,156.1 106.7,156.2 106.7,156.8 108.8,156.8 108.8,156.2 108.2,156.2 
			106.2,150.9 105.4,151.1 		"/>
		<polygon class="text-cyan" points="105,149.7 104.3,151.5 105.3,151.2 105.4,151 105.4,151 105.4,151.1 106.2,150.9 105.8,149.7 		
			"/>
		<polygon class="text-cyan" points="117.6,149.7 117.6,150.4 118.4,150.5 118.4,155.2 118.3,155.2 114.9,149.7 113.9,149.7 
			113.2,149.7 113.2,150.4 113.9,150.5 113.9,156.1 113.2,156.2 113.2,156.8 115.7,156.8 115.7,156.2 114.9,156.1 114.9,151.4 
			114.9,151.4 118.4,156.8 119.3,156.8 119.3,150.5 120.1,150.4 120.1,149.7 119.3,149.7 		"/>
		<path class="text-cyan" d="M127.4,152.9c-0.6-0.2-1.1-0.3-1.3-0.5c-0.3-0.2-0.4-0.5-0.4-0.8c0-0.3,0.1-0.6,0.4-0.8
			c0.3-0.2,0.7-0.3,1.2-0.3c0.3,0,0.6,0,0.8,0.1s0.4,0.2,0.6,0.3l0.2,1h0.7v-1.3c-0.2-0.2-0.6-0.5-1-0.6c-0.4-0.2-0.9-0.3-1.4-0.3
			c-0.8,0-1.4,0.2-1.8,0.6c-0.5,0.4-0.7,0.8-0.7,1.4c0,0.5,0.2,1,0.6,1.3s1,0.6,1.8,0.8c0.6,0.1,1,0.3,1.3,0.6
			c0.2,0.2,0.4,0.5,0.4,0.8c0,0.4-0.1,0.6-0.4,0.8c-0.3,0.2-0.7,0.3-1.2,0.3c-0.4,0-0.7,0-0.9-0.1s-0.5-0.2-0.7-0.4l-0.2-1h-0.7v1.3
			c0.3,0.3,0.6,0.5,1,0.7c0.4,0.2,0.9,0.3,1.5,0.3c0.8,0,1.4-0.2,1.8-0.5c0.5-0.3,0.7-0.8,0.7-1.4c0-0.5-0.2-1-0.6-1.3
			C128.7,153.3,128.1,153.1,127.4,152.9z"/>
		<polygon class="text-cyan" points="138.3,156.1 135.8,156.1 135.8,150.5 136.6,150.4 136.6,149.7 135.8,149.7 134.9,149.7 
			134.1,149.7 134.1,150.4 134.9,150.5 134.9,156.1 134.1,156.2 134.1,156.8 139.2,156.8 139.2,155.3 138.4,155.3 		"/>
		<path class="text-cyan" d="M147.4,149.7h-0.8l-2.5,6.4l-0.5,0.1v0.6h2v-0.6l-0.5-0.1l0.5-1.3h2.8l0.5,1.3l-0.5,0.1v0.6h2v-0.6
			l-0.5-0.1L147.4,149.7z M145.8,154l1.1-3.1h0l1.1,3.1H145.8z"/>
		<polygon class="text-cyan" points="153.5,151.3 154.3,151.3 154.4,150.5 156,150.5 156,156.1 155.2,156.2 155.2,156.8 157.7,156.8 
			157.7,156.2 156.9,156.1 156.9,150.5 158.5,150.5 158.6,151.3 159.4,151.3 159.4,149.7 153.5,149.7 		"/>
		<polygon class="text-cyan" points="163.5,150.4 164.3,150.5 164.3,156.1 163.5,156.2 163.5,156.8 166.1,156.8 166.1,156.2 
			165.3,156.1 165.3,150.5 166.1,150.4 166.1,149.7 163.5,149.7 		"/>
		<path class="text-cyan" d="M173.5,149.6c-0.9,0-1.7,0.3-2.2,1s-0.9,1.5-0.9,2.6v0.1c0,1,0.3,1.9,0.9,2.6s1.3,1,2.2,1
			c0.9,0,1.7-0.3,2.3-1c0.6-0.7,0.9-1.5,0.9-2.6v-0.1c0-1-0.3-1.9-0.9-2.6C175.2,150,174.4,149.6,173.5,149.6z M175.7,153.3
			c0,0.8-0.2,1.5-0.6,2s-0.9,0.8-1.7,0.8c-0.7,0-1.2-0.3-1.6-0.8c-0.4-0.5-0.6-1.2-0.6-2v-0.1c0-0.8,0.2-1.5,0.6-2
			c0.4-0.5,0.9-0.8,1.6-0.8c0.7,0,1.2,0.3,1.6,0.8c0.4,0.5,0.6,1.2,0.6,2V153.3z"/>
		<polygon class="text-cyan" points="185.4,149.7 185.4,150.4 186.2,150.5 186.2,155.2 186.2,155.2 182.8,149.7 181.8,149.7 181,149.7 
			181,150.4 181.8,150.5 181.8,156.1 181,156.2 181,156.8 183.6,156.8 183.6,156.2 182.8,156.1 182.8,151.4 182.8,151.4 
			186.2,156.8 187.2,156.8 187.2,150.5 188,150.4 188,149.7 187.2,149.7 		"/>
		<path class="text-cyan" d="M195.2,152.9c-0.6-0.2-1.1-0.3-1.3-0.5c-0.3-0.2-0.4-0.5-0.4-0.8c0-0.3,0.1-0.6,0.4-0.8
			c0.3-0.2,0.7-0.3,1.2-0.3c0.3,0,0.6,0,0.8,0.1s0.4,0.2,0.6,0.3l0.2,1h0.7v-1.3c-0.2-0.2-0.6-0.5-1-0.6c-0.4-0.2-0.9-0.3-1.4-0.3
			c-0.8,0-1.4,0.2-1.8,0.6c-0.5,0.4-0.7,0.8-0.7,1.4c0,0.5,0.2,1,0.6,1.3s1,0.6,1.8,0.8c0.6,0.1,1,0.3,1.3,0.6
			c0.2,0.2,0.4,0.5,0.4,0.8c0,0.4-0.1,0.6-0.4,0.8c-0.3,0.2-0.7,0.3-1.2,0.3c-0.4,0-0.7,0-0.9-0.1s-0.5-0.2-0.7-0.4l-0.2-1h-0.7v1.3
			c0.3,0.3,0.6,0.5,1,0.7c0.4,0.2,0.9,0.3,1.5,0.3c0.8,0,1.4-0.2,1.8-0.5c0.5-0.3,0.7-0.8,0.7-1.4c0-0.5-0.2-1-0.6-1.3
			C196.5,153.3,196,153.1,195.2,152.9z"/>
	</g>
</g>
</svg>
