<?xml version="1.0" encoding="utf-8"?>
<!-- Generator: Adobe Illustrator 24.3.0, SVG Export Plug-In . SVG Version: 6.00 Build 0)  -->
<svg version="1.1" xmlns="http://www.w3.org/2000/svg" xmlns:xlink="http://www.w3.org/1999/xlink" x="0px" y="0px"
	 viewBox="0 0 280 280" enable-background="new 0 0 280 280" xml:space="preserve">
<g id="Roboto">
	<defs>
		<polygon id="SVGID_1_" points="0,185.1 280,94.9 280,0 0,0 		"/>
	</defs>
	<clipPath id="SVGID_2_">
		<use xlink:href="#SVGID_1_"  overflow="visible"/>
	</clipPath>
	<g clip-path="url(#SVGID_2_)">
		<path fill="#FFFFFF" d="M87.9,140.9h9v4H82.8v-21.3h5.1V140.9z"/>
		<path fill="#FFFFFF" d="M111.4,140.9h-7l-1.2,4h-5.5l7.8-21.3h4.8l7.9,21.3h-5.5L111.4,140.9z M105.6,136.9h4.6l-2.3-7.4
			L105.6,136.9z"/>
		<path fill="#FFFFFF" d="M137.5,144.8h-5.1l-7.6-13.3v13.3h-5.1v-21.3h5.1l7.5,13.3v-13.3h5.1V144.8z"/>
		<path fill="#FFFFFF" d="M157.5,127.5h-6.4v17.4H146v-17.4h-6.3v-4h17.8V127.5z"/>
		<path fill="#FFFFFF" d="M167.6,137.3h-2.8v7.5h-5.1v-21.3h8.4c2.5,0,4.5,0.6,5.9,1.7s2.1,2.7,2.1,4.8c0,1.5-0.3,2.7-0.9,3.7
			c-0.6,1-1.5,1.8-2.8,2.4l4.5,8.6v0.2h-5.5L167.6,137.3z M164.8,133.3h3.3c1,0,1.7-0.3,2.2-0.8c0.5-0.5,0.7-1.2,0.7-2.2
			c0-0.9-0.2-1.6-0.7-2.2c-0.5-0.5-1.2-0.8-2.2-0.8h-3.3V133.3z"/>
		<path fill="#FFFFFF" d="M191.4,140.9h-7l-1.2,4h-5.5l7.8-21.3h4.8l7.9,21.3h-5.5L191.4,140.9z M185.6,136.9h4.6l-2.3-7.4
			L185.6,136.9z"/>
		<path fill="#FFFFFF" d="M87.3,151.1h-2.1v5.8h-1.7v-5.8h-2.1v-1.3h5.9V151.1z"/>
		<path fill="#FFFFFF" d="M93.9,152.4l0.9-0.3v0.9l-0.9,0.3v2.3h3v1.3h-4.7v-3.1l-0.7,0.2V153l0.7-0.2v-3.1h1.7V152.4z"/>
		<path fill="#FFFFFF" d="M107.2,149.7v4.7c0,0.5-0.1,1-0.3,1.4c-0.2,0.4-0.5,0.7-1,0.9s-0.9,0.3-1.5,0.3c-0.9,0-1.5-0.2-2-0.7
			s-0.8-1.1-0.8-1.8v-4.7h1.7v4.7c0,0.8,0.4,1.2,1.1,1.2c0.4,0,0.6-0.1,0.8-0.3s0.3-0.5,0.3-1v-4.6H107.2z"/>
		<path fill="#FFFFFF" d="M114.5,149.7l1.6,4.9l1.6-4.9h2.3v7.1h-1.7v-1.7l0.2-3.4l-1.7,5.1h-1.1l-1.7-5.1l0.2,3.4v1.7h-1.7v-7.1
			H114.5z"/>
		<path fill="#FFFFFF" d="M129.1,155.5h-2.3l-0.4,1.3h-1.8l2.6-7.1h1.6l2.6,7.1h-1.8L129.1,155.5z M127.2,154.2h1.5l-0.8-2.5
			L127.2,154.2z"/>
		<path fill="#FFFFFF" d="M141.6,154.4c0,0.5-0.2,0.9-0.4,1.3c-0.2,0.4-0.6,0.7-1,0.9c-0.4,0.2-0.9,0.3-1.5,0.3
			c-0.9,0-1.7-0.3-2.2-0.9s-0.8-1.5-0.8-2.6v-0.4c0-0.7,0.1-1.3,0.4-1.8c0.2-0.5,0.6-0.9,1-1.2c0.5-0.3,1-0.4,1.6-0.4
			c0.9,0,1.6,0.2,2.1,0.7c0.5,0.5,0.8,1.1,0.9,1.9h-1.7c0-0.4-0.1-0.7-0.3-0.9s-0.5-0.3-0.9-0.3c-0.4,0-0.7,0.2-0.9,0.5
			s-0.3,0.8-0.3,1.5v0.5c0,0.8,0.1,1.3,0.3,1.6c0.2,0.3,0.5,0.5,1,0.5c0.4,0,0.7-0.1,0.9-0.3s0.3-0.5,0.3-0.9H141.6z"/>
		<path fill="#FFFFFF" d="M148.4,155.5h3.4v1.3h-5.5v-0.9l3.4-4.9h-3.4v-1.3h5.5v0.9L148.4,155.5z"/>
		<path fill="#FFFFFF" d="M160.9,153.8h-2.7v1.7h3.2v1.3h-4.9v-7.1h4.9v1.3h-3.2v1.5h2.7V153.8z"/>
		<path fill="#FFFFFF" d="M172.1,156.8h-1.7l-2.5-4.4v4.4h-1.7v-7.1h1.7l2.5,4.4v-4.4h1.7V156.8z"/>
		<path fill="#FFFFFF" d="M179,156.8h-1.7v-7.1h1.7V156.8z"/>
		<path fill="#FFFFFF" d="M188.2,155.5h-2.3l-0.4,1.3h-1.8l2.6-7.1h1.6l2.6,7.1h-1.8L188.2,155.5z M186.3,154.2h1.5l-0.8-2.5
			L186.3,154.2z"/>
	</g>
</g>
<g id="Roboto_Slab">
	<defs>
		<polygon id="SVGID_3_" points="280,94.9 0,185.1 0,280 280,280 		"/>
	</defs>
	<clipPath id="SVGID_4_">
		<use xlink:href="#SVGID_3_"  overflow="visible"/>
	</clipPath>
	<g clip-path="url(#SVGID_4_)">
		<path fill="#009EDA" d="M82.2,144.8V143l2.4-0.4v-16.8l-2.4-0.4v-1.9h2.4h2.9h2.4v1.9l-2.4,0.4v16.8h7.4l0.2-2.4h2.5v4.7H82.2z"/>
		<path fill="#009EDA" d="M98.5,143l1.6-0.2l7.5-19.3h2.5l7.3,19.3l1.6,0.2v1.8h-6.1V143l1.6-0.3l-1.4-3.9h-8.5l-1.5,3.9l1.6,0.3
			v1.8h-6.1V143z M105.4,136.4h6.8l-3.3-9.2h-0.1L105.4,136.4z"/>
		<path fill="#009EDA" d="M138.9,123.5v1.9l-2.4,0.4v19.1h-2.9l-10.3-16.5l-0.1,0v14.2l2.4,0.4v1.8H118V143l2.4-0.4v-16.8l-2.4-0.4
			v-1.9h2.4h2.9l10.3,16.5l0.1,0v-14.2l-2.4-0.4v-1.9h5.3H138.9z"/>
		<path fill="#009EDA" d="M157.5,123.5v4.7h-2.5l-0.2-2.4h-4.7v16.8l2.4,0.4v1.8h-7.7V143l2.4-0.4v-16.8h-4.7l-0.2,2.4h-2.5v-4.7
			H157.5z"/>
		<path fill="#009EDA" d="M167.9,123.5c2.3,0,4.1,0.5,5.3,1.5s1.9,2.5,1.9,4.4c0,1-0.3,2-0.9,2.8s-1.4,1.4-2.5,1.9
			c1.2,0.4,2,1,2.5,1.9c0.5,0.9,0.8,1.9,0.8,3.2v1.7c0,0.7,0.1,1.1,0.2,1.5s0.4,0.5,0.8,0.6l0.7,0.1v1.9h-1.6
			c-1.1,0-1.9-0.4-2.4-1.2s-0.7-1.7-0.7-2.8v-1.7c0-1.2-0.3-2.1-1-2.8s-1.6-1.1-2.7-1.1h-4.6v7.3l2.4,0.4v1.8h-7.7V143l2.4-0.4
			v-16.8l-2.4-0.4v-1.8h2.4H167.9z M163.8,133.1h3.8c1.6,0,2.8-0.3,3.5-0.9s1.1-1.5,1.1-2.7c0-1.1-0.4-2-1.1-2.7s-1.8-1-3.3-1h-4.1
			V133.1z"/>
		<path fill="#009EDA" d="M177.3,143l1.6-0.2l7.5-19.3h2.5l7.3,19.3l1.6,0.2v1.8h-6.1V143l1.6-0.3l-1.4-3.9h-8.5l-1.5,3.9l1.6,0.3
			v1.8h-6.1V143z M184.1,136.4h6.8l-3.3-9.2h-0.1L184.1,136.4z"/>
		<path fill="#009EDA" d="M87.2,149.7v1.6h-0.8l-0.1-0.8h-1.6v5.6l0.8,0.1v0.6H83v-0.6l0.8-0.1v-5.6h-1.6l-0.1,0.8h-0.8v-1.6H87.2z"
			/>
		<path fill="#009EDA" d="M94.4,150.4l-0.8,0.1v2.2l1.2-0.4v0.8l-1.2,0.4v2.6h2.5l0.1-0.8H97v1.6h-5.1v-0.6l0.8-0.1v-2.3l-0.8,0.2
			v-0.8l0.8-0.2v-2.5l-0.8-0.1v-0.6h2.6V150.4z"/>
		<path fill="#009EDA" d="M103.6,149.7v0.6l-0.7,0.1v4.1c0,0.5,0.1,0.9,0.4,1.2c0.3,0.3,0.6,0.4,1.1,0.4c0.5,0,0.9-0.1,1.1-0.4
			c0.3-0.3,0.4-0.7,0.4-1.2v-4.1l-0.7-0.1v-0.6h1.6h0.7v0.6l-0.7,0.1v4.1c0,0.8-0.2,1.4-0.7,1.8c-0.5,0.4-1,0.6-1.8,0.6
			c-0.7,0-1.3-0.2-1.7-0.6c-0.4-0.4-0.7-1-0.7-1.8v-4.1l-0.7-0.1v-0.6h0.7H103.6z"/>
		<path fill="#009EDA" d="M119.1,151.2L119.1,151.2l-2.3,5.7h-0.6l-2.3-5.7l0,0l0.1,2.9v2.1l0.8,0.1v0.6h-2.6v-0.6l0.8-0.1v-5.6
			l-0.8-0.1v-0.6h0.8h1.2l2.3,5.8h0l2.3-5.8h2v0.6l-0.8,0.1v5.6l0.8,0.1v0.6h-2.6v-0.6l0.8-0.1V154L119.1,151.2z"/>
		<path fill="#009EDA" d="M126.1,156.2l0.5-0.1l2.5-6.4h0.8l2.4,6.4l0.5,0.1v0.6h-2v-0.6l0.5-0.1l-0.5-1.3h-2.8l-0.5,1.3l0.5,0.1
			v0.6h-2V156.2z M128.4,154h2.3l-1.1-3.1h0L128.4,154z"/>
		<path fill="#009EDA" d="M143.3,151.9h-0.7l-0.2-1c-0.2-0.2-0.3-0.3-0.6-0.4s-0.5-0.1-0.8-0.1c-0.7,0-1.3,0.3-1.7,0.8
			c-0.4,0.5-0.6,1.2-0.6,2v0.1c0,0.8,0.2,1.5,0.6,2c0.4,0.5,0.9,0.8,1.6,0.8c0.3,0,0.6-0.1,0.9-0.2s0.5-0.2,0.6-0.4l0.2-1h0.7v1.3
			c-0.2,0.3-0.5,0.5-0.9,0.7c-0.4,0.2-0.9,0.3-1.4,0.3c-0.9,0-1.7-0.3-2.3-1c-0.6-0.7-0.9-1.5-0.9-2.6v-0.1c0-1,0.3-1.9,0.9-2.6
			c0.6-0.7,1.3-1,2.3-1c0.5,0,1,0.1,1.4,0.3c0.4,0.2,0.7,0.4,0.9,0.7V151.9z"/>
		<path fill="#009EDA" d="M150.1,156.1h3.1l0.1-0.8h0.8v1.6H149v-0.7l3.8-5.6H150l-0.1,0.8h-0.8v-1.6h4.8v0.7L150.1,156.1z"/>
		<path fill="#009EDA" d="M159.6,156.8v-0.6l0.8-0.1v-5.6l-0.8-0.1v-0.6h5.5v1.7h-0.8l-0.1-1h-2.8v2.3h2.7v0.8h-2.7v2.5h2.9l0.1-1
			h0.8v1.7H159.6z"/>
		<path fill="#009EDA" d="M177.6,149.7v0.6l-0.8,0.1v6.4h-1l-3.4-5.5l0,0v4.7l0.8,0.1v0.6h-2.6v-0.6l0.8-0.1v-5.6l-0.8-0.1v-0.6h0.8
			h1l3.4,5.5l0,0v-4.7l-0.8-0.1v-0.6h1.8H177.6z"/>
		<path fill="#009EDA" d="M183,150.4v-0.6h2.6v0.6l-0.8,0.1v5.6l0.8,0.1v0.6H183v-0.6l0.8-0.1v-5.6L183,150.4z"/>
		<path fill="#009EDA" d="M190.8,156.2l0.5-0.1l2.5-6.4h0.8l2.4,6.4l0.5,0.1v0.6h-2v-0.6l0.5-0.1l-0.5-1.3h-2.8l-0.5,1.3l0.5,0.1
			v0.6h-2V156.2z M193.1,154h2.3l-1.1-3.1h0L193.1,154z"/>
	</g>
</g>
</svg>
