<svg xmlns="http://www.w3.org/2000/svg" xmlns:xlink="http://www.w3.org/1999/xlink" width="80" height="80" viewBox="0 0 80 80">
  <defs>
    <style>
      .cls-1 {
        fill: #e2007a;
        fill-rule: evenodd;
        filter: url(#filter);
      }
    </style>
    <filter id="filter" x="776" y="5779" width="80" height="80" filterUnits="userSpaceOnUse">
      <feFlood result="flood" flood-color="#009ee0"/>
      <feComposite result="composite" operator="in" in2="SourceGraphic"/>
      <feBlend result="blend" in2="SourceGraphic"/>
    </filter>
  </defs>
  <path class="cls-1" d="M816,5779a40,40,0,1,0,40,40A40,40,0,0,0,816,5779Zm0,77.33A37.33,37.33,0,1,1,853.333,5819,37.329,37.329,0,0,1,816,5856.33Zm17.529-32.45-11.317-2a1.337,1.337,0,0,0-1.413.69l-2.744,5.26a21.344,21.344,0,0,1-10.884-10.89l5.253-2.74a1.338,1.338,0,0,0,.7-1.42l-2-11.31a1.311,1.311,0,0,0-.567-0.87A9.328,9.328,0,0,0,796,5808.33,30.7,30.7,0,0,0,826.667,5839a9.335,9.335,0,0,0,7.733-14.56A1.309,1.309,0,0,0,833.529,5823.88Zm-6.862,12.45a28.024,28.024,0,0,1-28-28,6.66,6.66,0,0,1,6.665-6.66,6.571,6.571,0,0,1,3.269.85l1.724,9.77-5.466,2.85a1.34,1.34,0,0,0-.631,1.66,24.027,24.027,0,0,0,13.973,13.98,1.342,1.342,0,0,0,1.655-.63l2.855-5.47,9.768,1.72A6.664,6.664,0,0,1,826.667,5836.33Z" transform="translate(-776 -5779)"/>
</svg>
