<svg xmlns="http://www.w3.org/2000/svg" xmlns:xlink="http://www.w3.org/1999/xlink" width="73.625" height="73.62" viewBox="0 0 73.625 73.62">
  <defs>
    <style>
      .cls-1 {
        fill: #e2007a;
        fill-rule: evenodd;
        filter: url(#filter);
      }
    </style>
    <filter id="filter" x="721" y="3529" width="73.625" height="73.62" filterUnits="userSpaceOnUse">
      <feFlood result="flood" flood-color="#009ee0"/>
      <feComposite result="composite" operator="in" in2="SourceGraphic"/>
      <feBlend result="blend" in2="SourceGraphic"/>
    </filter>
  </defs>
  <path class="cls-1" d="M746.525,3597.56a1.147,1.147,0,0,1-1.151-1.15,4.39,4.39,0,0,1,4.385-4.38h3.452v-1.09a4.442,4.442,0,0,1,1.346-3.2,1.153,1.153,0,0,1,1.611,1.65,2.134,2.134,0,0,0-.655,1.55v2.24a1.154,1.154,0,0,1-1.151,1.15h-4.6a2.084,2.084,0,0,0-2.089,2.08A1.144,1.144,0,0,1,746.525,3597.56Zm22.584,0a1.147,1.147,0,0,1-1.15-1.15,2.084,2.084,0,0,0-2.089-2.08h-4.839a1.154,1.154,0,0,1-1.151-1.15v-2.24a2.175,2.175,0,0,0-.575-1.48,1.149,1.149,0,0,1,1.685-1.56,4.442,4.442,0,0,1,1.2,3.04v1.09h3.683a4.387,4.387,0,0,1,4.39,4.38,1.147,1.147,0,0,1-1.151,1.15h0Zm-13.182-12.33a1.154,1.154,0,0,1-1.151-1.15v-34.69a1.151,1.151,0,0,1,2.3,0v34.69A1.154,1.154,0,0,1,755.927,3585.23Zm3.556,0a1.154,1.154,0,0,1-1.151-1.15v-34.69a1.151,1.151,0,0,1,2.3,0v34.69A1.154,1.154,0,0,1,759.483,3585.23Zm-1.778-34.7a5.215,5.215,0,1,1,5.219-5.22A5.215,5.215,0,0,1,757.705,3550.53Zm0-8.13a2.915,2.915,0,1,0,2.917,2.91A2.918,2.918,0,0,0,757.705,3542.4Zm-2.037-.25a1.166,1.166,0,0,1-.955-0.49,3.6,3.6,0,1,1,5.978,0,1.15,1.15,0,0,1-1.91-1.28,1.307,1.307,0,1,0-2.169,0,1.151,1.151,0,0,1-.956,1.79Zm2.037-3.83a3.617,3.617,0,0,1-3.608-3.61c0-1.64,2.141-4.44,2.791-5.27a1.141,1.141,0,0,1,.926-0.43,1.158,1.158,0,0,1,.9.47c0.609,0.82,2.6,3.62,2.6,5.23A3.617,3.617,0,0,1,757.705,3538.32Zm0.052-6.18a8.164,8.164,0,0,0-1.358,2.57,1.306,1.306,0,0,0,2.612,0A8.042,8.042,0,0,0,757.757,3532.14Zm16.514,70.47H741.128a1.147,1.147,0,0,1-1.151-1.15,5.605,5.605,0,0,1,5.593-5.59h3.13a1.15,1.15,0,1,1,0,2.3h-3.113a3.317,3.317,0,0,0-3.084,2.14h30.41a3.318,3.318,0,0,0-3.084-2.14H754.615a1.15,1.15,0,1,1,0-2.3h15.214a5.606,5.606,0,0,1,5.593,5.59A1.148,1.148,0,0,1,774.271,3602.61Zm-16.566-12.2a3.867,3.867,0,1,1,.023,0h-0.023Zm0-5.44a1.57,1.57,0,1,0,1.577,1.57v-0.03a1.571,1.571,0,0,0-1.577-1.54h0Zm-23.315-35.32a4.489,4.489,0,0,1-.818-0.07,5.378,5.378,0,0,1-4.344-4.2,1.151,1.151,0,0,1,2.25-.48,3.1,3.1,0,0,0,2.5,2.42,3.893,3.893,0,0,0,2.428-.53,29.2,29.2,0,0,1,16.486-3.9,1.159,1.159,0,0,1,1.11,1.19h0a1.141,1.141,0,0,1-1.189,1.11h0a27.076,27.076,0,0,0-15.213,3.56A6.359,6.359,0,0,1,734.39,3549.65Zm46.745,8.28a5.106,5.106,0,0,1-.955-0.09,6.156,6.156,0,0,1-3.493-2.16c-3.337-4.2-8.257-7.24-14.546-9.02a1.149,1.149,0,1,1,.627-2.21c6.756,1.91,12.044,5.21,15.715,9.77a3.888,3.888,0,0,0,2.1,1.34,3.112,3.112,0,0,0,3.176-1.41,1.15,1.15,0,0,1,1.986,1.16c-0.011.02-.023,0.04-0.035,0.06A5.369,5.369,0,0,1,781.135,3557.93Zm-47.085,26.8c-5.524,0-10.587-2.45-12.895-6.27a1.15,1.15,0,0,1,.421-1.57,1.117,1.117,0,0,1,.563-0.15h23.828a1.154,1.154,0,0,1,1.138,1.16,1.137,1.137,0,0,1-.154.56C744.643,3582.28,739.58,3584.73,734.05,3584.73Zm-9.5-5.69a15.015,15.015,0,0,0,19.006,0H724.55Zm18.971-4.03a1.143,1.143,0,0,1-1.053-.68l-8.418-18.9-8.418,18.9a1.15,1.15,0,0,1-2.134-.86c0.01-.03.022-0.05,0.034-0.08L733,3552.12a1.151,1.151,0,0,1,1.521-.58,1.123,1.123,0,0,1,.579.58l9.477,21.28a1.154,1.154,0,0,1-.586,1.52A1.267,1.267,0,0,1,743.521,3575.01Zm38.057,17.77c-5.524,0-10.587-2.45-12.894-6.25a1.148,1.148,0,0,1,.421-1.57,1.111,1.111,0,0,1,.562-0.15h23.822a1.14,1.14,0,0,1,1.138,1.16,1.127,1.127,0,0,1-.154.56C792.166,3590.32,787.1,3592.78,781.578,3592.78Zm-9.5-5.69a15.022,15.022,0,0,0,19.011,0H772.073Zm18.971-4.03a1.14,1.14,0,0,1-1.053-.68l-8.413-18.91-8.418,18.9a1.154,1.154,0,0,1-2.112-.93l9.471-21.27a1.151,1.151,0,0,1,1.521-.58,1.125,1.125,0,0,1,.58.58l9.471,21.27a1.149,1.149,0,0,1-.578,1.52A1.09,1.09,0,0,1,791.044,3583.06Z" transform="translate(-721 -3529)"/>
</svg>
