<svg xmlns="http://www.w3.org/2000/svg" xmlns:xlink="http://www.w3.org/1999/xlink" width="73.69" height="72.47" viewBox="0 0 73.69 72.47">
  <defs>
    <style>
      .cls-1 {
        fill: #e2007a;
        fill-rule: evenodd;
        filter: url(#filter);
      }
    </style>
    <filter id="filter" x="1385.31" y="3531.56" width="73.69" height="72.47" filterUnits="userSpaceOnUse">
      <feFlood result="flood" flood-color="#009ee0"/>
      <feComposite result="composite" operator="in" in2="SourceGraphic"/>
      <feBlend result="blend" in2="SourceGraphic"/>
    </filter>
  </defs>
  <path class="cls-1" d="M1428.5,3564.34h-5.18v-5.75h9.21a1.15,1.15,0,0,0,0-2.3h-9.21v-3.72a4.243,4.243,0,1,0-2.3,0v3.72h-6.91a5.175,5.175,0,1,0,0,10.35h6.91v5.18h-3.46a4.6,4.6,0,0,0,0,9.2h3.46v3.45h-1.73a1.15,1.15,0,1,0,0,2.3h1.73v4.55a1.15,1.15,0,1,0,2.3,0v-4.55h1.15a4.025,4.025,0,1,0,0-8.05h-1.15v-4.6h5.18a5.393,5.393,0,0,0,5.18-5.18C1433.68,3566.07,1431.04,3564.34,1428.5,3564.34Zm-8.27-15.84a1.935,1.935,0,1,1,1.94,1.94A1.94,1.94,0,0,1,1420.23,3548.5Zm-6.12,15.84a2.875,2.875,0,1,1,0-5.75h6.91v5.75h-6.91Zm12.09,18.4a1.642,1.642,0,0,1-1.54,1.73h-1.34v-3.45h1.15a1.64,1.64,0,0,1,1.73,1.53v0.19Zm-5.18-4.02h-3.46a2.3,2.3,0,1,1,0-4.6h3.46v4.6Zm7.48-6.9h-5.18v-5.18h5.18c1.38,0,2.88.88,2.88,2.3A3.122,3.122,0,0,1,1428.5,3571.82Zm29.92,3.74-13.46-7.77,13.46-7.76a1.159,1.159,0,0,0,.43-1.57l-10.25-17.73a1.147,1.147,0,0,0-1.57-.42h0l-13.35,7.67v-15.26a1.157,1.157,0,0,0-1.15-1.15h-20.72a1.15,1.15,0,0,0-1.15,1.15v15.26l-13.36-7.67a1.147,1.147,0,0,0-1.57.42h0l-10.24,17.73a1.147,1.147,0,0,0,.42,1.57l13.47,7.76-13.47,7.77a1.147,1.147,0,0,0-.42,1.57l10.24,17.73a1.147,1.147,0,0,0,1.57.42h0l13.36-7.67v15.26a1.15,1.15,0,0,0,1.15,1.15h20.72a1.157,1.157,0,0,0,1.15-1.15v-15.26l13.35,7.67a1.147,1.147,0,0,0,1.57-.42h0l10.25-17.73A1.159,1.159,0,0,0,1458.42,3575.56Zm-11.24,17.15-14.08-8.09a1.156,1.156,0,0,0-1.57.42,1.194,1.194,0,0,0-.15.58v16.1h-18.42v-16.1a1.15,1.15,0,0,0-1.15-1.15,1.166,1.166,0,0,0-.58.15l-14.08,8.09-9.1-15.72,14.2-8.2a1.147,1.147,0,0,0,.42-1.57,1.061,1.061,0,0,0-.42-0.42l-14.2-8.21,9.1-15.73,14.08,8.11a1.157,1.157,0,0,0,1.57-.43,1.139,1.139,0,0,0,.16-0.57v-16.1h18.42v16.1a1.144,1.144,0,0,0,1.15,1.15,1.129,1.129,0,0,0,.57-0.15l14.08-8.09,9.1,15.71-14.2,8.21a1.147,1.147,0,0,0-.42,1.57,1.207,1.207,0,0,0,.42.42l14.2,8.2Z" transform="translate(-1385.31 -3531.56)"/>
</svg>
