
<svg 
 xmlns="http://www.w3.org/2000/svg"
 xmlns:xlink="http://www.w3.org/1999/xlink"
 width="60px" height="79px">
<defs>
<filter id="Filter_0">
    <feFlood flood-color="rgb(0, 158, 224)" flood-opacity="1" result="floodOut" />
    <feComposite operator="atop" in="floodOut" in2="SourceGraphic" result="compOut" />
    <feBlend mode="normal" in="compOut" in2="SourceGraphic" />
</filter>

</defs>
<g filter="url(#Filter_0)">
<path fill-rule="evenodd"  fill="rgb(226, 0, 122)"
 d="M57.758,18.842 L51.649,29.327 C57.035,34.823 59.996,42.017 59.996,49.705 C59.996,53.197 59.374,56.547 58.237,59.656 L58.319,59.656 L57.542,61.426 C57.410,61.728 57.255,62.015 57.114,62.311 C57.090,62.361 57.066,62.411 57.041,62.460 C53.926,68.860 48.634,73.793 42.260,76.544 C42.033,76.643 41.804,76.739 41.573,76.832 C41.282,76.949 40.992,77.067 40.696,77.175 C40.184,77.364 39.666,77.539 39.141,77.700 C38.954,77.757 38.764,77.806 38.576,77.859 C38.133,77.986 37.685,78.102 37.233,78.208 C37.051,78.250 36.870,78.294 36.687,78.333 C36.078,78.463 35.463,78.579 34.841,78.672 C34.757,78.685 34.672,78.692 34.588,78.704 C34.028,78.783 33.462,78.843 32.893,78.890 C32.724,78.904 32.556,78.917 32.387,78.928 C31.738,78.971 31.086,79.000 30.427,79.000 C29.768,79.000 29.116,78.971 28.467,78.928 C28.298,78.917 28.130,78.904 27.961,78.890 C27.392,78.843 26.827,78.783 26.267,78.704 C26.183,78.692 26.097,78.685 26.013,78.672 C25.391,78.579 24.776,78.463 24.167,78.333 C23.984,78.294 23.803,78.250 23.620,78.208 C23.169,78.102 22.722,77.986 22.279,77.859 C22.090,77.806 21.900,77.757 21.713,77.700 C21.188,77.539 20.670,77.364 20.158,77.175 C19.863,77.067 19.572,76.949 19.281,76.832 C19.050,76.739 18.822,76.643 18.595,76.544 C12.220,73.793 6.928,68.860 3.813,62.460 C3.788,62.411 3.765,62.361 3.741,62.312 C3.599,62.016 3.445,61.728 3.312,61.426 L2.535,59.656 L2.617,59.656 C1.481,56.547 0.858,53.197 0.858,49.705 C0.858,46.794 1.295,43.983 2.097,41.327 L2.028,41.327 L2.639,39.689 C2.900,38.982 3.194,38.291 3.507,37.610 C3.532,37.556 3.556,37.501 3.581,37.447 C7.946,28.101 17.136,21.408 27.967,20.519 C28.085,20.510 28.202,20.501 28.320,20.493 C29.017,20.444 29.718,20.410 30.427,20.410 C30.588,20.410 30.746,20.430 30.906,20.432 C30.988,20.429 31.070,20.408 31.153,20.411 C31.262,20.414 31.370,20.446 31.479,20.459 C32.325,20.489 33.166,20.549 34.000,20.649 C34.028,20.653 34.056,20.658 34.083,20.661 C34.872,20.758 35.657,20.877 36.434,21.037 C36.686,21.087 36.934,21.159 37.185,21.216 C37.510,21.292 37.833,21.379 38.158,21.459 L36.653,18.882 C34.475,15.102 34.472,10.598 36.640,6.828 C38.835,3.011 42.785,0.732 47.205,0.732 C51.632,0.732 55.586,3.016 57.780,6.841 C59.939,10.604 59.931,15.090 57.760,18.840 C57.760,18.840 57.759,18.841 57.758,18.842 ZM57.480,49.705 C57.480,46.808 57.003,43.994 56.117,41.327 L40.997,41.327 C41.355,44.387 41.517,47.529 41.421,50.566 C41.342,53.393 41.010,56.530 40.464,59.656 L55.534,59.656 C56.784,56.577 57.480,53.221 57.480,49.705 ZM37.661,75.495 C37.675,75.491 37.689,75.487 37.703,75.483 C38.157,75.358 38.606,75.219 39.051,75.072 C39.137,75.043 39.223,75.015 39.309,74.985 C39.665,74.863 40.018,74.730 40.368,74.594 C40.512,74.537 40.657,74.484 40.800,74.425 C41.042,74.326 41.280,74.217 41.519,74.111 C47.018,71.655 51.542,67.435 54.352,62.180 L39.976,62.180 C38.781,67.782 36.910,73.067 34.566,76.151 C35.616,75.992 36.649,75.771 37.661,75.495 ZM38.441,41.327 L22.638,41.327 C22.195,44.005 21.921,46.727 21.880,49.315 C21.788,52.806 22.073,56.341 22.611,59.656 L37.916,59.656 C38.456,56.714 38.818,53.600 38.905,50.490 C38.999,47.524 38.820,44.387 38.441,41.327 ZM28.446,75.424 C28.881,75.873 29.530,76.407 30.151,76.407 L30.169,76.407 C30.174,76.407 30.181,76.407 30.187,76.407 C32.492,76.407 35.583,70.233 37.404,62.180 L23.083,62.180 C24.351,68.295 26.428,73.346 28.446,75.424 ZM16.409,72.593 C16.410,72.593 16.411,72.594 16.412,72.595 C16.749,72.797 17.092,72.991 17.438,73.179 C17.568,73.249 17.700,73.317 17.831,73.385 C18.077,73.514 18.323,73.641 18.573,73.762 C20.811,74.836 23.206,75.615 25.701,76.050 C23.482,73.052 21.618,67.936 20.495,62.180 L6.502,62.180 C8.797,66.471 12.230,70.077 16.409,72.593 ZM3.375,49.705 C3.375,53.221 4.070,56.577 5.321,59.656 L20.051,59.656 C19.529,56.234 19.274,52.672 19.364,49.262 C19.406,46.654 19.657,43.966 20.068,41.327 L4.739,41.327 C3.858,43.964 3.375,46.779 3.375,49.705 ZM5.773,38.707 C5.758,38.739 5.744,38.770 5.729,38.802 L20.514,38.802 C21.793,32.343 24.015,26.476 26.563,23.217 C17.512,24.527 9.603,30.369 5.773,38.707 ZM32.729,23.918 C32.359,23.524 31.821,23.079 31.272,22.975 C31.154,22.971 31.036,22.961 30.918,22.958 C30.341,23.023 29.751,23.465 29.342,23.859 C26.840,26.260 24.487,32.206 23.113,38.802 L38.083,38.802 C37.008,32.215 35.016,26.352 32.729,23.918 ZM35.526,23.412 C37.800,26.673 39.656,32.418 40.652,38.802 L55.070,38.802 C53.894,36.181 52.262,33.760 50.305,31.635 L48.291,35.091 C48.066,35.478 47.653,35.716 47.205,35.717 C46.758,35.717 46.345,35.480 46.119,35.093 L40.053,24.705 C38.575,24.146 37.066,23.705 35.526,23.412 ZM55.599,8.100 C53.860,5.068 50.722,3.257 47.205,3.257 C43.695,3.257 40.560,5.063 38.820,8.089 C37.106,11.069 37.108,14.629 38.827,17.611 L47.203,31.955 L55.585,17.568 C57.298,14.609 57.303,11.070 55.599,8.100 ZM47.205,19.486 C43.700,19.486 40.849,16.652 40.849,13.169 C40.849,9.685 43.700,6.851 47.205,6.851 C50.709,6.851 53.560,9.685 53.560,13.169 C53.560,16.652 50.709,19.486 47.205,19.486 ZM47.205,9.376 C45.088,9.376 43.366,11.077 43.366,13.169 C43.366,15.260 45.088,16.962 47.205,16.962 C49.322,16.962 51.044,15.261 51.044,13.169 C51.044,11.077 49.322,9.376 47.205,9.376 Z"/>
</g>
</svg>