<svg xmlns="http://www.w3.org/2000/svg" xmlns:xlink="http://www.w3.org/1999/xlink" width="73.66" height="73.62" viewBox="0 0 73.66 73.62">
  <defs>
    <style>
      .cls-1 {
        fill: #e2007a;
        fill-rule: evenodd;
        filter: url(#filter);
      }
    </style>
    <filter id="filter" x="1385" y="3127" width="73.66" height="73.62" filterUnits="userSpaceOnUse">
      <feFlood result="flood" flood-color="#009ee0"/>
      <feComposite result="composite" operator="in" in2="SourceGraphic"/>
      <feBlend result="blend" in2="SourceGraphic"/>
    </filter>
  </defs>
  <path class="cls-1" d="M1418.5,3177.65h-12.83a1.144,1.144,0,0,1-1.15-1.15v-32.78a1.15,1.15,0,0,1,1.15-1.15h12.83a1.157,1.157,0,0,1,1.15,1.15v32.78A1.15,1.15,0,0,1,1418.5,3177.65Zm-11.68-2.3h10.52v-30.48h-10.52v30.48Zm5.26-30.57a1.144,1.144,0,0,1-1.15-1.15v-15.48a1.15,1.15,0,1,1,2.3,0v15.53A1.147,1.147,0,0,1,1412.08,3144.78Zm0,43.95a1.144,1.144,0,0,1-1.15-1.15V3176.5a1.15,1.15,0,1,1,2.3,0v11.08a1.15,1.15,0,0,1-1.15,1.15h0Zm45.44-17.9h-12.83a1.15,1.15,0,0,1-1.15-1.15V3152.7a1.15,1.15,0,0,1,1.15-1.15h12.83a1.15,1.15,0,0,1,1.15,1.15v16.98A1.15,1.15,0,0,1,1457.52,3170.83Zm-11.68-2.3h10.52v-14.68h-10.52v14.68Zm5.26-14.78a1.157,1.157,0,0,1-1.15-1.15v-12.02a1.155,1.155,0,0,1,2.31,0v12.02A1.159,1.159,0,0,1,1451.1,3153.75Zm0,31.78a1.157,1.157,0,0,1-1.15-1.15v-14.7a1.155,1.155,0,0,1,2.31,0v14.7A1.159,1.159,0,0,1,1451.1,3185.53Zm-13.1-33.55h-12.82a1.15,1.15,0,0,1-1.15-1.15v-13.81a1.15,1.15,0,0,1,1.15-1.15H1438a1.15,1.15,0,0,1,1.15,1.15v13.81A1.15,1.15,0,0,1,1438,3151.98Zm-11.67-2.3h10.52v-11.51h-10.52v11.51Zm5.26-11.58a1.15,1.15,0,0,1-1.15-1.15v-8.8a1.15,1.15,0,1,1,2.3,0v8.8A1.157,1.157,0,0,1,1431.59,3138.1Zm0,34.98a1.15,1.15,0,0,1-1.15-1.15v-21.1a1.15,1.15,0,1,1,2.3,0v21.1A1.157,1.157,0,0,1,1431.59,3173.08Zm-32.62,16.61h-12.82a1.157,1.157,0,0,1-1.15-1.15v-9.49a1.15,1.15,0,0,1,1.15-1.15h12.82a1.144,1.144,0,0,1,1.15,1.15v9.49A1.15,1.15,0,0,1,1398.97,3189.69Zm-11.67-2.3h10.52v-7.19H1387.3v7.19Zm5.26,13.22a1.15,1.15,0,0,1-1.15-1.15v-10.92a1.15,1.15,0,1,1,2.3,0v10.92A1.144,1.144,0,0,1,1392.56,3200.61Zm0-20.41a1.157,1.157,0,0,1-1.15-1.15v-30.59a1.15,1.15,0,1,1,2.3,0v30.59A1.15,1.15,0,0,1,1392.56,3180.2Z" transform="translate(-1385 -3127)"/>
</svg>
