<svg xmlns="http://www.w3.org/2000/svg" xmlns:xlink="http://www.w3.org/1999/xlink" width="71" height="67.28" viewBox="0 0 71 67.28">
  <defs>
    <style>
      .cls-1 {
        fill: #009ee0;
        fill-rule: evenodd;
        filter: url(#filter);
      }
    </style>
    <filter id="filter" x="1388.59" y="1042.81" width="71" height="67.28" filterUnits="userSpaceOnUse">
      <feFlood result="flood" flood-color="#009ee0"/>
      <feComposite result="composite" operator="in" in2="SourceGraphic"/>
      <feBlend result="blend" in2="SourceGraphic"/>
    </filter>
  </defs>
  <path class="cls-1" d="M1440.87,1110.11l-15.65-10.95H1388.6L1389,1043l70.58-.2v56.36h-16.13v9.66Zm-49.05-14.17h34.37l14.03,9.82v-9.82h16.13v-49.92h-64.53v49.92Zm45.78-37.93-1.2,1.2c-5.7,5.75-11.85,12.38-17.55,18.17l-8.39-6.95-1.31-1.08-2.15,2.64,1.3,1.09,9.6,7.94,1.18,0.97,1.09-1.09c6.06-6.1,12.65-13.27,18.63-19.3l1.2-1.2Z" transform="translate(-1388.59 -1042.81)"/>
</svg>
