<svg xmlns="http://www.w3.org/2000/svg" xmlns:xlink="http://www.w3.org/1999/xlink" width="73.656" height="63.41" viewBox="0 0 73.656 63.41">
  <defs>
    <style>
      .cls-1 {
        fill: #e2007a;
        fill-rule: evenodd;
        filter: url(#filter);
      }
    </style>
    <filter id="filter" x="721" y="3129.09" width="73.656" height="63.41" filterUnits="userSpaceOnUse">
      <feFlood result="flood" flood-color="#009ee0"/>
      <feComposite result="composite" operator="in" in2="SourceGraphic"/>
      <feBlend result="blend" in2="SourceGraphic"/>
    </filter>
  </defs>
  <path class="cls-1" d="M789.97,3192.49H725.7a1.154,1.154,0,0,1-1.151-1.15v-23.93a1.151,1.151,0,0,1,2.3,0v22.78h61.972v-22.78a1.151,1.151,0,0,1,2.3,0v23.93A1.154,1.154,0,0,1,789.97,3192.49Zm3.546-34.94a1.154,1.154,0,0,1-1.151-1.15v-17.42H723.3v17.42a1.151,1.151,0,0,1-2.3,0v-18.57a1.147,1.147,0,0,1,1.151-1.15h71.365a1.148,1.148,0,0,1,1.151,1.15v18.57A1.154,1.154,0,0,1,793.516,3157.55Zm-35.683,12.79c-18.106,0-36.833-5.02-36.833-13.42a1.151,1.151,0,0,1,2.3,0c0,5.36,13.876,11.12,34.531,11.12s34.532-5.75,34.532-11.12a1.151,1.151,0,0,1,2.3,0C794.667,3165.31,775.939,3170.34,757.833,3170.34Zm4.374-4.88h-8.748a4.652,4.652,0,0,1-4.656-4.65v-0.66a4.655,4.655,0,0,1,4.656-4.65h8.748a4.651,4.651,0,0,1,4.65,4.65v0.64a4.654,4.654,0,0,1-4.638,4.67h-0.012Zm-8.748-7.66a2.351,2.351,0,0,0-2.348,2.35v0.64a2.364,2.364,0,0,0,2.348,2.35h8.748a2.354,2.354,0,0,0,2.354-2.35v-0.64a2.354,2.354,0,0,0-2.354-2.35h-8.748Zm19.6-18.8a1.147,1.147,0,0,1-1.151-1.15v-2.57a3.891,3.891,0,0,0-3.891-3.88H747.647a3.89,3.89,0,0,0-3.891,3.88v2.57a1.151,1.151,0,0,1-2.3,0v-2.57a6.191,6.191,0,0,1,6.193-6.18H768.02a6.192,6.192,0,0,1,6.193,6.18v2.57A1.148,1.148,0,0,1,773.062,3139Z" transform="translate(-721 -3129.09)"/>
</svg>
