<?xml version="1.0" encoding="utf-8"?>
<!-- Generator: Adobe Illustrator 24.3.0, SVG Export Plug-In . SVG Version: 6.00 Build 0)  -->
<svg version="1.1" id="Layer_1" xmlns="http://www.w3.org/2000/svg" xmlns:xlink="http://www.w3.org/1999/xlink" x="0px" y="0px"
	 viewBox="0 0 119.999 40" style="enable-background:new 0 0 119.999 40;" xml:space="preserve">
<style type="text/css">
	.st0{fill:#009FE3;}
</style>
<g id="Roboto">
</g>
<g id="Roboto_Slab">
	<g>
		<polygon class="st0" points="45.7,24.6 45,24.8 45.7,24.8 		"/>
		<polygon class="st0" points="53.7,24.8 56.5,24.8 56.5,21.1 52.2,22.5 		"/>
		<polygon class="st0" points="64.8,23 64.8,24.8 72.5,24.8 72.5,23 70.1,22.6 70.1,16.7 67.2,17.7 67.2,22.6 		"/>
		<path class="st0" d="M78.5,23v1.8h7.7V23l-2.4-0.4v-7.3h4.6c1.1,0,2,0.4,2.7,1.1c0.7,0.7,1,1.6,1,2.8v1.7c0,1.1,0.2,2.1,0.7,2.8
			s1.3,1.2,2.4,1.2h1.6V23l-0.7-0.1c-0.4-0.1-0.7-0.2-0.8-0.6s-0.2-0.8-0.2-1.5v-1.7c0-1.3-0.3-2.3-0.8-3.2C93.8,15,93,14.4,91.8,14
			c1.1-0.5,1.9-1.1,2.5-1.9s0.9-1.7,0.9-2.8c0-0.3,0-0.5,0-0.8l-2.9,0.9c0,1.1-0.4,1.9-1.1,2.5c-0.7,0.6-1.9,0.9-3.5,0.9h-3.8v-0.7
			L81,13v9.3L78.5,23z"/>
		<path class="st0" d="M116.1,22.8L109,4.2l-3.4,1.1l-6.7,17.5L97.3,23v1.8h6.1V23l-1.6-0.3l1.5-3.9h8.5l1.4,3.9l-1.6,0.3v1.8h6.1
			V23L116.1,22.8z M104.1,16.4L104.1,16.4l3.4-9.2h0.1h0l3.3,9.2H104.1z"/>
		<polygon class="st0" points="14.1,36.2 13.3,36.1 13.3,35 12.4,35.4 12.4,36.1 11.6,36.2 11.6,36.8 14.1,36.8 		"/>
		<path class="st0" d="M16.1,35v0.6c0,0.4,0.1,0.7,0.2,0.9c0.2,0.3,0.4,0.4,0.8,0.4h0.5v-0.6h-0.2c-0.1,0-0.2-0.1-0.3-0.2
			S17,35.8,17,35.6V35c0-0.4-0.1-0.7-0.2-1l-0.9,0.3C16,34.4,16.1,34.7,16.1,35z"/>
		<polygon class="st0" points="22,36.2 22,36.8 24,36.8 24,36.2 23.4,36.1 23.9,34.8 26.8,34.8 27.2,36.1 26.7,36.2 26.7,36.8 
			28.8,36.8 28.8,36.2 28.2,36.2 26.2,30.9 25.4,31.1 26.5,34 24.2,34 25.3,31.2 24.3,31.5 22.5,36.2 		"/>
		<polygon class="st0" points="34.9,31.4 38.4,36.8 39.3,36.8 39.3,30.5 40.1,30.4 40.1,29.7 39.3,29.7 37.6,29.7 37.6,30.4 
			38.4,30.5 38.4,35.2 38.3,35.2 34.9,29.7 33.9,29.7 33.2,29.7 33.2,30.4 33.9,30.5 33.9,36.1 33.2,36.2 33.2,36.8 35.7,36.8 
			35.7,36.2 34.9,36.1 		"/>
		<path class="st0" d="M47.1,36.9c0.8,0,1.4-0.2,1.8-0.5c0.5-0.3,0.7-0.8,0.7-1.4c0-0.5-0.2-1-0.6-1.3c-0.4-0.4-1-0.6-1.7-0.8
			c-0.6-0.2-1.1-0.3-1.3-0.5c-0.3-0.2-0.4-0.5-0.4-0.8s0.1-0.6,0.4-0.8s0.7-0.3,1.2-0.3c0.3,0,0.6,0,0.8,0.1
			c0.2,0.1,0.4,0.2,0.6,0.3l0.2,1h0.7v-1.3c-0.2-0.2-0.6-0.5-1-0.6c-0.4-0.2-0.9-0.3-1.4-0.3c-0.8,0-1.4,0.2-1.8,0.6
			c-0.5,0.4-0.7,0.8-0.7,1.4c0,0.5,0.2,1,0.6,1.3s1,0.6,1.8,0.8c0.6,0.1,1,0.3,1.3,0.6c0.2,0.2,0.4,0.5,0.4,0.8
			c0,0.4-0.1,0.6-0.4,0.8c-0.3,0.2-0.7,0.3-1.2,0.3c-0.4,0-0.7,0-0.9-0.1s-0.5-0.2-0.7-0.4l-0.2-1h-0.7v1.3c0.3,0.3,0.6,0.5,1,0.7
			C46.1,36.9,46.6,36.9,47.1,36.9z"/>
		<polygon class="st0" points="54.1,36.2 54.1,36.8 59.2,36.8 59.2,35.3 58.4,35.3 58.3,36.1 55.8,36.1 55.8,30.5 56.6,30.4 
			56.6,29.7 55.8,29.7 54.9,29.7 54.1,29.7 54.1,30.4 54.9,30.5 54.9,36.1 		"/>
		<path class="st0" d="M69.8,36.1l-2.4-6.4h-0.8l-2.5,6.4l-0.5,0.1v0.6h2v-0.6l-0.5-0.1l0.5-1.3h2.8l0.5,1.3l-0.5,0.1v0.6h1.9v-0.6
			L69.8,36.1z M68,34h-2.2l1.1-3.1l0.036,0.1H67l1.1,3H68z"/>
		<polygon class="st0" points="78.5,30.5 78.6,31.3 79.4,31.3 79.4,29.7 73.5,29.7 73.5,31.3 74.3,31.3 74.4,30.5 76,30.5 76,36.1 
			75.2,36.2 75.2,36.8 77.7,36.8 77.7,36.2 76.9,36.1 76.9,30.5 		"/>
		<polygon class="st0" points="86.1,30.4 86.1,29.7 83.5,29.7 83.5,30.4 84.3,30.5 84.3,36.1 83.5,36.2 83.5,36.8 86.1,36.8 
			86.1,36.2 85.3,36.1 85.3,30.5 		"/>
		<path class="st0" d="M95.8,30.7c-0.6-0.7-1.4-1-2.3-1c-0.9-0.1-1.7,0.3-2.2,1c-0.6,0.7-0.9,1.5-0.9,2.6v0.1c0,1,0.3,1.9,0.9,2.6
			c0.6,0.7,1.3,1,2.2,1c0.9,0,1.7-0.3,2.3-1c0.6-0.7,0.9-1.5,0.9-2.6v-0.1C96.7,32.3,96.4,31.4,95.8,30.7z M95.8,33.3
			c0,0.8-0.2,1.5-0.6,2c-0.4,0.5-1,0.8-1.7,0.8c-0.017,0-0.031-0.005-0.047-0.005c-0.019,0-0.034,0.005-0.053,0.005
			c-0.7,0-1.2-0.3-1.6-0.8c-0.4-0.5-0.6-1.2-0.6-2v-0.1c0-0.8,0.2-1.5,0.6-2c0.4-0.5,0.9-0.8,1.6-0.8c0.037,0,0.065,0.009,0.1,0.01
			c0.035-0.001,0.063-0.01,0.1-0.01c0.7,0,1.2,0.3,1.6,0.8s0.6,1.2,0.6,2V33.3z"/>
		<polygon class="st0" points="101,36.2 101,36.8 103.6,36.8 103.6,36.2 102.8,36.1 102.8,31.4 102.8,31.4 106.2,36.8 107.2,36.8 
			107.2,30.5 108,30.4 108,29.7 107.2,29.7 105.4,29.7 105.4,30.4 106.2,30.5 106.2,35.2 106.2,35.2 102.8,29.7 101.8,29.7 
			101,29.7 101,30.4 101.8,30.5 101.8,36.1 		"/>
		<path class="st0" d="M115,36.2c-0.4,0-0.7,0-0.9-0.1s-0.5-0.2-0.7-0.4l-0.2-1h-0.7V36c0.3,0.3,0.6,0.5,1,0.7s0.9,0.3,1.5,0.3
			c0.8,0,1.4-0.2,1.8-0.5c0.5-0.3,0.7-0.8,0.7-1.4c0-0.5-0.2-1-0.6-1.3c-0.4-0.4-1-0.6-1.7-0.8c-0.6-0.2-1.1-0.3-1.3-0.5
			c-0.3-0.2-0.4-0.5-0.4-0.8s0.1-0.6,0.4-0.8c0.3-0.2,0.7-0.3,1.2-0.3c0.3,0,0.6,0,0.8,0.1s0.4,0.2,0.6,0.3l0.2,1h0.7v-1.3
			c-0.2-0.2-0.6-0.5-1-0.6c-0.4-0.2-0.9-0.3-1.4-0.3c-0.8,0-1.4,0.2-1.8,0.6c-0.5,0.4-0.7,0.8-0.7,1.4c0,0.5,0.2,1,0.6,1.3
			s1,0.6,1.8,0.8c0.6,0.1,1,0.3,1.3,0.6c0.2,0.2,0.4,0.5,0.4,0.8c0,0.4-0.1,0.6-0.4,0.8C115.8,36.1,115.5,36.2,115,36.2z"/>
	</g>
	<g>
		<polygon class="st0" points="16.8,20.9 7.9,20.9 7.9,3.5 2.8,3.5 2.8,24.8 16.8,24.8 		"/>
		<path class="st0" d="M30.2,3.5h-4.7l-7.8,21.3h5.5l1.2-4h7l1.2,4h5.5L30.2,3.5z M25.6,16.9l2.3-7.4l2.3,7.4H25.6z"/>
		<polygon class="st0" points="52.4,16.8 44.9,3.5 39.7,3.5 39.7,24.8 44.9,24.8 44.9,11.6 51.3,22.8 57.5,20.8 57.5,3.5 52.4,3.5 
					"/>
		<polygon class="st0" points="59.7,7.5 66,7.5 66,18.1 71.1,16.4 71.1,7.5 77.5,7.5 77.5,3.5 59.7,3.5 		"/>
		<path class="st0" d="M94,5.2c-1.4-1.1-3.4-1.7-5.9-1.7h-8.4v10.1l5.1-1.7V7.4h3.3c1,0,1.7,0.3,2.2,0.8c0.4,0.4,0.6,1,0.7,1.7
			l5-1.6C95.7,7.1,95.1,6,94,5.2z"/>
		<polygon class="st0" points="110.3,3.5 105.4,3.5 104.7,5.6 110.4,3.8 		"/>
		<polygon class="st0" points="1.3,31.1 3.4,31.1 3.4,36.8 5.1,36.8 5.1,31.1 7.3,31.1 7.3,29.7 1.3,29.7 		"/>
		<path class="st0" d="M16.8,30.3c-0.5-0.4-1.1-0.6-2-0.6H12v5.7l1.7-0.6v-0.6h0.9l0.1,0.3l1.6-0.5l-0.1-0.2
			c0.4-0.2,0.7-0.5,0.9-0.8c0.2-0.3,0.3-0.7,0.3-1.2C17.5,31.2,17.2,30.7,16.8,30.3z M15.5,32.8c-0.1,0.2-0.4,0.3-0.7,0.3h-1.1v-2
			h1.1c0.225,0,0.45,0.056,0.591,0.169c0.047,0.038,0.084,0.081,0.109,0.131c0.1,0.2,0.2,0.4,0.2,0.7C15.8,32.3,15.7,32.6,15.5,32.8
			z"/>
		<polygon class="st0" points="24.6,29.7 23.9,31.6 26.6,30.8 26.2,29.7 		"/>
	</g>
</g>
</svg>
