<?xml version="1.0" encoding="utf-8"?>
<!-- Generator: Adobe Illustrator 24.3.0, SVG Export Plug-In . SVG Version: 6.00 Build 0)  -->
<svg version="1.1" xmlns="http://www.w3.org/2000/svg" xmlns:xlink="http://www.w3.org/1999/xlink" x="0px" y="0px"
	 viewBox="0 0 120 40" enable-background="new 0 0 120 40" xml:space="preserve">
<g id="Roboto">
</g>
<g id="Roboto_Slab">
	<g>
		<polygon fill="none" points="25.6,16.9 30.2,16.9 27.9,9.5 		"/>
		<polygon fill="none" points="114.2,31 113.1,34 115.4,34 114.3,31 		"/>
		<polygon fill="none" points="49.5,31 48.4,34 50.6,34 49.5,31 		"/>
		<path fill="none" d="M87.6,13.1c1.6,0,2.8-0.3,3.5-0.9c0.7-0.6,1-1.4,1.1-2.5l1.4-0.5L91,10c-0.1-0.7-0.3-1.3-0.7-1.7
			c-0.5-0.5-1.2-0.8-2.2-0.8h-3.3V12l-0.5,0.2l-0.6,0.2v0.7H87.6z"/>
		<polygon fill="none" points="107.5,7.2 104.1,16.4 110.9,16.4 107.6,7.2 		"/>
		<polygon fill="#FFFFFF" points="53.7,24.8 56.5,24.8 56.5,21.1 52.2,22.5 		"/>
		<polygon fill="#0E9CD9" points="45.7,24.8 45.7,24.6 45,24.8 		"/>
		<path fill="#FFFFFF" d="M96.1,22.9c-0.4-0.1-0.7-0.2-0.8-0.6S95,21.5,95,20.9v-1.7c0-1.3-0.3-2.3-0.8-3.2
			c-0.5-0.9-1.3-1.5-2.5-1.9c1.1-0.5,1.9-1.1,2.5-1.9s0.9-1.7,0.9-2.8c0-0.3,0-0.5,0-0.8l1-0.3v0c-0.3-1.3-0.9-2.4-2-3.2
			c-1.4-1.1-3.4-1.7-5.9-1.7h-8.4v10.1l1.2-0.4v9.3L78.5,23v1.8h7.7V23l-2.4-0.4v-7.3h4.6c1.1,0,2,0.4,2.7,1.1s1,1.6,1,2.8v1.7
			c0,1.1,0.2,2.1,0.7,2.8s1.3,1.2,2.4,1.2h1.6V23L96.1,22.9z M91.1,12.1c-0.7,0.6-1.9,0.9-3.5,0.9h-3.8v-0.7l0.6-0.2l0.5-0.2V7.5
			h3.3c1,0,1.7,0.3,2.2,0.8c0.4,0.4,0.6,1,0.7,1.7l2.5-0.8l-1.4,0.5C92.1,10.7,91.8,11.6,91.1,12.1z"/>
		<path fill="#FFFFFF" d="M116.1,22.8l-7.1-18.6l-3.4,1.1l-6.8,17.5L97.3,23v1.8h6.1V23l-1.6-0.3l1.5-3.9h8.5l1.4,3.9l-1.6,0.3v1.8
			h6.1V23L116.1,22.8z M104.1,16.4l3.4-9.2h0.1l3.3,9.2H104.1z"/>
		<polygon fill="#FFFFFF" points="16.1,36.1 13.6,36.1 13.6,35 13.9,34.8 13.9,33.3 14.9,33 14.9,32.1 13.9,32.4 13.9,29.7 
			12.2,29.7 12.2,32.9 11.6,33 11.6,33.9 12.2,33.7 12.2,35.4 12.2,35.4 12.7,35.3 12.7,36.1 11.9,36.2 11.9,36.8 17,36.8 17,35.3 
			16.2,35.3 		"/>
		<polygon fill="#FFFFFF" points="36.5,35.5 36.4,35.5 34.2,29.7 32.9,29.7 32.1,29.7 32.1,30.4 32.9,30.5 32.9,36.1 32.1,36.2 
			32.1,36.8 34.7,36.8 34.7,36.2 33.9,36.1 33.9,34 33.8,31.2 33.8,31.2 36.1,36.8 36.8,36.8 39.1,31.1 39.1,31.2 39,34 39,36.1 
			38.2,36.2 38.2,36.8 40.8,36.8 40.8,36.2 40,36.1 40,30.5 40.8,30.4 40.8,29.7 38.7,29.7 		"/>
		<path fill="#FFFFFF" d="M52.4,36.2l-2.4-6.4h-0.8l-2.5,6.4l-0.5,0.1v0.6h2v-0.6l-0.5-0.1l0.5-1.3h2.8l0.5,1.3l-0.5,0.1v0.6h2v-0.6
			L52.4,36.2z M48.4,34l1.1-3.1h0l1.1,3.1H48.4z"/>
		<path fill="#FFFFFF" d="M60.9,29.6c-0.9,0-1.7,0.3-2.3,1c-0.6,0.7-0.9,1.5-0.9,2.6v0.1c0,1,0.3,1.9,0.9,2.6c0.6,0.7,1.4,1,2.3,1
			c0.5,0,1-0.1,1.4-0.3c0.4-0.2,0.7-0.4,0.9-0.7v-1.3h-0.7l-0.2,1c-0.1,0.1-0.3,0.3-0.6,0.4s-0.6,0.2-0.9,0.2
			c-0.7,0-1.2-0.3-1.6-0.8c-0.4-0.5-0.6-1.2-0.6-2v-0.1c0-0.8,0.2-1.5,0.6-2c0.4-0.5,1-0.8,1.7-0.8c0.3,0,0.6,0,0.8,0.1
			s0.4,0.2,0.6,0.4l0.2,1h0.7v-1.3c-0.2-0.3-0.5-0.5-0.9-0.7C62,29.7,61.5,29.6,60.9,29.6z"/>
		<polygon fill="#FFFFFF" points="73.2,36.1 70.1,36.1 73.9,30.4 73.9,29.7 69.1,29.7 69.1,31.3 69.9,31.3 70,30.5 72.8,30.5 
			69,36.1 69,36.8 74.1,36.8 74.1,35.3 73.3,35.3 		"/>
		<polygon fill="#FFFFFF" points="84.2,36.1 81.3,36.1 81.3,33.5 84.1,33.5 84.1,32.8 81.3,32.8 81.3,30.5 84.1,30.5 84.2,31.4 
			85,31.4 85,29.7 79.6,29.7 79.6,30.4 80.4,30.5 80.4,36.1 79.6,36.2 79.6,36.8 85.1,36.8 85.1,35.1 84.3,35.1 		"/>
		<polygon fill="#FFFFFF" points="95.1,29.7 95.1,30.4 95.9,30.5 95.9,35.2 95.8,35.2 92.4,29.7 91.5,29.7 90.7,29.7 90.7,30.4 
			91.5,30.5 91.5,36.1 90.7,36.2 90.7,36.8 93.2,36.8 93.2,36.2 92.4,36.1 92.4,31.4 92.5,31.4 95.9,36.8 96.8,36.8 96.8,30.5 
			97.6,30.4 97.6,29.7 96.8,29.7 		"/>
		<polygon fill="#FFFFFF" points="103,30.4 103.8,30.5 103.8,36.1 103,36.2 103,36.8 105.5,36.8 105.5,36.2 104.7,36.1 104.7,30.5 
			105.5,30.4 105.5,29.7 103,29.7 		"/>
		<path fill="#FFFFFF" d="M117.1,36.2l-2.4-6.4h-0.8l-2.5,6.4l-0.5,0.1v0.6h2v-0.6l-0.5-0.1l0.5-1.3h2.8l0.5,1.3l-0.5,0.1v0.6h2
			v-0.6L117.1,36.2z M113.1,34l1.1-3.1h0l1.1,3.1H113.1z"/>
		<polygon fill="#FFFFFF" points="16.8,20.9 7.9,20.9 7.9,3.5 2.8,3.5 2.8,24.8 16.8,24.8 		"/>
		<path fill="#FFFFFF" d="M30.3,3.5h-4.8l-7.8,21.3h5.5l1.2-4h7l1.2,4h5.5L30.3,3.5z M25.6,16.9l2.3-7.4l2.3,7.4H25.6z"/>
		<polygon fill="#FFFFFF" points="52.4,16.8 44.9,3.5 39.7,3.5 39.7,24.8 44.9,24.8 44.9,11.6 51.3,22.8 57.5,20.8 57.5,3.5 
			52.4,3.5 		"/>
		<polygon fill="#FFFFFF" points="59.7,7.5 66,7.5 66,18.1 67.2,17.7 67.2,22.6 64.8,23 64.8,24.8 72.5,24.8 72.5,23 70.1,22.6 
			70.1,16.7 69.7,16.9 70.8,16.5 71.1,16.4 71.1,7.5 77.5,7.5 77.5,3.5 59.7,3.5 		"/>
		<polygon fill="#FFFFFF" points="110.3,3.5 105.4,3.5 104.7,5.6 110.4,3.8 		"/>
		<polygon fill="#FFFFFF" points="1.3,31.1 3.4,31.1 3.4,36.8 5.1,36.8 5.1,31.1 7.3,31.1 7.3,29.7 1.3,29.7 		"/>
		<path fill="#FFFFFF" d="M25.5,31.1L26,31v3.6c0,0.5-0.1,0.9-0.4,1.2c-0.3,0.3-0.7,0.4-1.1,0.4c-0.5,0-0.8-0.1-1.1-0.4
			c-0.3-0.3-0.4-0.7-0.4-1.2V32L22,32.2v2.3c0,0.8,0.2,1.4,0.7,1.8c0.4,0.4,1,0.6,1.7,0.6c0.7,0,1.3-0.2,1.8-0.6
			c0.5-0.4,0.7-1,0.7-1.8v-3.9l0.4-0.1v-0.8h-1.7V31.1z"/>
		<polygon fill="#FFFFFF" points="23.3,29.7 21.6,29.7 21.6,32.4 23.3,31.8 		"/>
	</g>
</g>
</svg>
