<svg id="Grupa_1" data-name="Grupa 1" xmlns="http://www.w3.org/2000/svg" xmlns:xlink="http://www.w3.org/1999/xlink" width="226" height="65" viewBox="0 0 226 65">
  <defs>
    <style>
      .cls-1 {
        fill: #e2007a;
        filter: url(#filter);
      }

      .cls-1, .cls-2 {
        fill-rule: evenodd;
      }

      .cls-2 {
        fill: #fff;
      }
    </style>
    <filter id="filter" x="81.344" y="6838.28" width="206.656" height="64.72" filterUnits="userSpaceOnUse">
      <feFlood result="flood" flood-color="#009ee0"/>
      <feComposite result="composite" operator="in" in2="SourceGraphic"/>
      <feBlend result="blend" in2="SourceGraphic"/>
    </filter>
  </defs>
  <path id="Shape_1_copy_4" data-name="Shape 1 copy 4" class="cls-1" d="M141.6,6847.51l0.7,0.78-0.527-.84Zm25.963-5.1H161.9v27.52l-0.172.05L142.3,6848.29l19.6,31.18h5.664v-37.06Zm26.626,0h-5.664v32.67l-4.686.8v3.59h15.037v-3.59l-4.687-.8v-32.67Zm43.214,26.04v3.21a10.393,10.393,0,0,0,1.394,5.53,5.071,5.071,0,0,0,4.7,2.28h3.047v-3.68l-1.38-.17a2.047,2.047,0,0,1-1.61-1.08,6.227,6.227,0,0,1-.488-2.82v-3.33a11.764,11.764,0,0,0-1.512-6.18,8.536,8.536,0,0,0-4.93-3.62,11.2,11.2,0,0,0,4.859-3.68,8.855,8.855,0,0,0,1.7-5.35q0-5.52-3.652-8.53c-2.435-2-24.181,1.38-24.181,1.38v32.67l-4.686.8v3.59H225.7v-3.59l-4.686-.8v-14.13H230.1a7.086,7.086,0,0,1,5.319,2.05,7.523,7.523,0,0,1,1.984,5.45m-8.942-11.91h-7.446v-14.13h8.021q4.342,0,6.412,1.91a6.7,6.7,0,0,1,2.07,5.18,6.417,6.417,0,0,1-2.156,5.24q-2.157,1.8-6.9,1.8m47.153,22.93h12.018v-3.59l-3.077-.43L269.9,6838.27h-4.859l-14.359,37.18-3.105.43v3.59h11.989v-3.59l-3.162-.54,2.846-7.64h16.763l2.759,7.64-3.162.54v3.59ZM261.009,6863l6.613-17.8h0.172l6.5,17.8H261.009Zm-168.7,38.16a2.062,2.062,0,0,1-.164-0.94v-1.11a3.949,3.949,0,0,0-.5-2.06A2.859,2.859,0,0,0,90,6895.84a3.673,3.673,0,0,0,1.62-1.22,2.974,2.974,0,0,0,.566-1.79,3.483,3.483,0,0,0-1.217-2.84c-0.81-.67-2.546-0.44-4.066-0.44l-3.995.9v10.89l-1.562.27v1.19h5.012v-1.19l-1.562-.27v-4.71h3.028a2.34,2.34,0,0,1,1.773.69,2.485,2.485,0,0,1,.661,1.81v1.07a3.442,3.442,0,0,0,.466,1.84,1.68,1.68,0,0,0,1.566.76H93.3v-1.22l-0.46-.06a0.7,0.7,0,0,1-.537-0.36m-2.732-6.6a3.569,3.569,0,0,1-2.3.6H84.794v-4.71h2.674a3.045,3.045,0,0,1,2.137.64,2.225,2.225,0,0,1,.69,1.72,2.146,2.146,0,0,1-.719,1.75m17.629-5.27h-1.62l-4.878,12.17-1.035.15v1.19h4v-1.19l-1.055-.18,0.949-2.55h5.588l0.919,2.55-1.054.18v1.19h4.006v-1.19l-1.025-.15Zm-3.057,8.03,2.2-5.94h0.057l2.166,5.94h-4.427Zm26.166-8.34v1.2l1.562,0.27v9.17l-0.057.02-6.709-10.66h-3.451v1.2l1.562,0.27v10.89l-1.562.27v1.19h5.013v-1.19l-1.562-.27v-9.19l0.058-.02,6.708,10.67h1.888v-12.35l1.562-.27v-1.2h-5.012Zm19.317,6.11a7.56,7.56,0,0,1-2.649-1.06,1.8,1.8,0,0,1-.821-1.5,2,2,0,0,1,.805-1.65,3.683,3.683,0,0,1,2.31-.63,5.271,5.271,0,0,1,1.668.24,3.541,3.541,0,0,1,1.15.6l0.354,1.97h1.429v-2.57a5.9,5.9,0,0,0-1.931-1.21,6.776,6.776,0,0,0-2.67-.5,5.72,5.72,0,0,0-3.613,1.08,3.3,3.3,0,0,0-1.39,2.7,3.167,3.167,0,0,0,1.246,2.55,8.513,8.513,0,0,0,3.46,1.54,6.012,6.012,0,0,1,2.54,1.08,2.039,2.039,0,0,1,.719,1.59,1.9,1.9,0,0,1-.829,1.62,3.78,3.78,0,0,1-2.257.6,5.154,5.154,0,0,1-1.812-.28,4.581,4.581,0,0,1-1.3-.74l-0.364-1.98h-1.418v2.57a5.685,5.685,0,0,0,2.036,1.37,7.329,7.329,0,0,0,2.861.52,5.963,5.963,0,0,0,3.6-1.01,3.194,3.194,0,0,0,1.374-2.69,3.394,3.394,0,0,0-1.144-2.61,7.561,7.561,0,0,0-3.35-1.6m21.557,6.25H166.34v-10.89l1.562-.27v-1.2h-5.013v1.2l1.562,0.27v10.89l-1.562.27v1.19h10.054v-3.04h-1.611Zm17.919-12.36h-1.62l-4.878,12.48-1.035.15v1.19h4v-1.19l-1.054-.18,0.949-2.55h5.588l0.919,2.55-1.054.18v1.19h4.006v-1.19l-1.025-.15Zm-3.057,8.34,2.2-5.94h0.057l2.167,5.94H186.05Zm15.167-5.28h1.62l0.134-1.59h3.106v10.89l-1.563.27v1.19h5.013v-1.19l-1.562-.27v-10.89h3.095l0.144,1.59h1.61v-3.06h-11.6v3.06ZM221,6890.18l1.562,0.27v10.89l-1.562.27v1.19h5.012v-1.19l-1.562-.27v-10.89l1.562-.27v-1.2H221v1.2Zm19.672-1.4a5.48,5.48,0,0,0-4.389,2,7.53,7.53,0,0,0-1.688,5.02v0.2a7.485,7.485,0,0,0,1.688,5.01,5.471,5.471,0,0,0,4.389,1.99,5.741,5.741,0,0,0,4.529-1.99,7.323,7.323,0,0,0,1.748-5.01v-0.2a7.367,7.367,0,0,0-1.748-5.02,5.749,5.749,0,0,0-4.529-2m4.389,7.22a6.414,6.414,0,0,1-1.15,3.96,3.824,3.824,0,0,1-3.239,1.51,3.574,3.574,0,0,1-3.08-1.52,6.55,6.55,0,0,1-1.108-3.95v-0.22a6.528,6.528,0,0,1,1.108-3.93,3.582,3.582,0,0,1,3.08-1.53,3.851,3.851,0,0,1,3.227,1.52,6.333,6.333,0,0,1,1.162,3.94V6896Zm19.124-7.02v1.2l1.563,0.27v9.17l-0.058.02-6.709-10.66h-3.45v1.2l1.562,0.27v10.89l-1.562.27v1.19h5.012v-1.19l-1.562-.27v-9.19l0.058-.02,6.709,10.67h1.888v-12.35l1.561-.27v-1.2h-5.012Zm22.668,7.71a7.565,7.565,0,0,0-3.351-1.6,7.56,7.56,0,0,1-2.649-1.06,1.8,1.8,0,0,1-.82-1.5,2,2,0,0,1,.8-1.65,3.681,3.681,0,0,1,2.31-.63,5.265,5.265,0,0,1,1.667.24,3.51,3.51,0,0,1,1.15.6l0.356,1.97h1.427v-2.57a5.9,5.9,0,0,0-1.93-1.21,6.962,6.962,0,0,0-2.67-.5,5.718,5.718,0,0,0-3.613,1.08,3.3,3.3,0,0,0-1.39,2.7,3.167,3.167,0,0,0,1.246,2.55,8.511,8.511,0,0,0,3.461,1.54,6.008,6.008,0,0,1,2.538,1.08,2.039,2.039,0,0,1,.719,1.59,1.9,1.9,0,0,1-.828,1.62,3.782,3.782,0,0,1-2.257.6,5.146,5.146,0,0,1-1.812-.28,4.574,4.574,0,0,1-1.3-.74l-0.364-1.98h-1.418v2.57a5.689,5.689,0,0,0,2.037,1.37,7.329,7.329,0,0,0,2.861.52,5.9,5.9,0,0,0,3.6-1.01A3.2,3.2,0,0,0,288,6899.3a3.4,3.4,0,0,0-1.144-2.61" transform="translate(-62 -6838)"/>
  <path id="Shape_1_copy_5" data-name="Shape 1 copy 5" class="cls-2" d="M62,6838v41.47H89.657v-7.69H72.09V6838H62Zm29.211,41.47h10.782l2.416-7.75h13.829l2.444,7.75h10.839L116.051,6838h-9.489Zm20.1-29.85,4.514,14.38h-9ZM159.465,6838v25.8L144.659,6838H134.567v41.47h10.092v-25.81l12.565,21.86,12.305-3.93V6838H159.465Zm36.745,25.07v-17.36h12.565V6838H173.784v7.71h12.335v20.58Zm44.939-21.8q-4.2-3.27-11.644-3.27H213.03v19.7l10.092-3.22v-8.79h6.383a5.7,5.7,0,0,1,4.313,1.53,5.459,5.459,0,0,1,1.408,3.39l9.8-3.13a10.432,10.432,0,0,0-3.881-6.21m31.886-3.27h-9.488l-1.5,4.04,11.167-3.56Zm-206.3,64.8H70.1v-11.25h4.188v-2.57H62.62v2.57h4.112v11.25Zm23.783-5.72a4.168,4.168,0,0,0,1.844-1.54,4.437,4.437,0,0,0,.59-2.39,3.678,3.678,0,0,0-1.4-3.08,6.153,6.153,0,0,0-3.881-1.09H82.177v11.17l3.365-1.08v-1.16h1.82l0.25,0.5,3.085-.99Zm-1.4-2.23a1.938,1.938,0,0,1-1.443.5H85.542v-3.81h2.127a1.9,1.9,0,0,1,1.437.51,1.952,1.952,0,0,1,.489,1.41,1.917,1.917,0,0,1-.483,1.39m18.853-5.87H104.8l-1.378,3.72,5.3-1.69Z" transform="translate(-62 -6838)"/>
</svg>
